<svg width="502" height="186" viewBox="0 0 502 186" fill="none" xmlns="http://www.w3.org/2000/svg">
<path d="M4.09961 121.175L9.69961 103.975C18.5996 105.375 26.4996 106.775 34.3996 111.075L27.4996 126.875H31.2996V151.775C32.6996 151.175 33.9996 150.675 35.3996 150.075C35.4996 151.975 35.6996 153.775 35.8996 155.475L42.3996 150.875H37.2996V140.375C36.3996 140.575 35.3996 140.675 34.3996 140.875C34.3996 138.775 34.2996 136.575 34.0996 134.375C33.8996 132.275 33.6996 130.175 33.3996 128.275C33.0996 126.375 32.6996 124.575 32.2996 122.975C31.7996 121.475 31.2996 120.275 30.7996 119.475C32.3996 119.475 34.2996 119.275 36.4996 118.875C38.5996 118.475 40.2996 117.775 41.4996 116.875C42.9996 115.775 44.1996 114.175 45.0996 112.075C45.9996 110.075 46.4996 107.875 46.3996 105.575H88.7996V113.575C88.7996 114.575 89.0996 115.375 89.6996 115.875C90.2996 116.475 91.1996 116.875 92.3996 116.975C93.4996 117.075 95.4996 117.075 98.1996 116.875C97.4996 122.675 97.0996 128.275 96.8996 133.775C92.3996 134.075 89.2996 134.175 87.3996 134.175C85.4996 134.175 83.7996 134.175 82.0996 134.075C80.3996 133.975 78.8996 133.875 77.7996 133.775C76.2996 133.675 75.0996 133.475 74.1996 133.175C73.1996 132.875 72.3996 132.475 71.8996 131.775C71.2996 131.075 70.8996 130.075 70.6996 128.775C70.3996 127.475 70.2996 125.775 70.2996 123.475H62.7996C62.6996 123.875 62.4996 124.275 62.3996 124.675C61.8996 126.375 60.9996 127.775 59.8996 128.875C58.9996 129.675 57.8996 130.575 56.4996 131.675C55.0996 132.775 53.3996 133.975 51.3996 135.075C50.7996 135.475 50.2996 135.775 49.6996 136.075L92.7996 135.875L97.4996 149.975C94.6996 153.675 91.7996 157.175 88.6996 160.575C88.8996 160.575 89.0996 160.575 89.3996 160.575C92.6996 160.575 95.7996 160.175 98.8996 159.475C97.3996 164.175 96.1996 168.275 95.0996 171.575C93.9996 174.875 93.1996 177.975 92.4996 180.775C86.0996 180.275 79.9996 179.075 74.2996 177.375C71.7996 176.575 69.3996 175.775 66.9996 174.975C64.1996 175.775 61.2996 176.575 58.3996 177.275C55.2996 177.975 52.1996 178.675 49.0996 179.275C45.9996 179.875 43.1996 180.475 40.4996 181.175C39.8996 178.475 38.9996 175.475 37.7996 172.175C37.4996 171.675 37.2996 171.075 37.0996 170.575C28.5996 174.075 19.1996 177.675 10.5996 180.675C8.69961 173.675 6.99961 167.875 4.09961 161.275C5.89961 160.775 7.79961 160.275 9.69961 159.675V146.475H2.09961V126.875H24.2996C17.6996 124.575 10.8996 122.775 4.09961 121.175ZM69.7996 150.875H57.3996C58.3996 151.675 59.3996 152.475 60.4996 153.075C61.5996 153.775 62.7996 154.575 64.0996 155.275C64.2996 155.375 64.5996 155.475 64.7996 155.675C66.4996 154.375 68.0996 152.775 69.7996 150.875ZM36.2996 158.475C36.4996 159.575 36.6996 160.675 36.8996 161.775C37.7996 161.975 38.6996 162.175 39.5996 162.275C40.5996 162.375 41.4996 162.475 42.4996 162.475C40.1996 161.075 38.1996 159.775 36.2996 158.475Z" fill="white"/>
<path d="M138.4 146.475V124.875H157.9V103.975H181.6V124.875H197.8V146.475H181.6V180.975H157.9V146.475H138.4ZM135.3 126.975V150.875C138.5 149.575 141.7 148.175 144.9 146.575C145.2 152.875 147 159.775 148 166.075C136.9 172.475 126.7 175.875 112.8 181.275C111.1 174.675 108.7 168.475 105.9 161.775C107.8 161.175 109.7 160.475 111.5 159.875V147.375H103.2V126.975H125.2C118.7 124.775 112 122.975 105.3 121.575L110.8 104.175C120 105.475 129.5 107.475 137.9 111.875L131.5 126.975H135.3Z" fill="white"/>
<path d="M239.3 156.875C238.1 149.675 236.2 142.475 233.4 135.275V181.275H211.1V157.775C208.7 158.875 206.3 159.975 203.9 160.775C203.2 151.975 202.7 143.075 200.6 134.275C206.5 133.075 208.8 131.475 210.6 128.475C211.9 126.375 215 116.475 215 103.675L239.5 103.775C238.9 113.675 237 123.875 234.2 131.975C245.3 127.075 248.7 120.775 249.3 104.275H272.8C272.6 106.175 272.3 107.975 272 109.675H297.2V128.575H274V133.075H295.2V150.975H274V155.475H297.2V174.675H274V181.275H251.6V147.875C248.1 150.875 244 153.875 239.3 156.875Z" fill="white"/>
<path d="M309 139.075V105.775H391V139.075H309ZM304.1 180.975V141.275H348.9V180.975H329.5V179.975H323.5V180.975H304.1ZM351.4 180.975V141.275H396.2V180.975H376.8V179.975H370.8V180.975H351.4ZM337.1 121.375V124.575H362.9V121.375H337.1ZM323.5 161.975H329.5V157.875H323.5V161.975ZM370.8 161.975H376.8V157.875H370.8V161.975Z" fill="white"/>
<path d="M492.8 126.975H464.7V128.675H492.8V136.675H464.7V138.475H493.5V148.175H460.6V150.075H496.8V162.675H463.2C472.5 164.775 485 165.475 497.8 165.575C493.3 171.475 490.8 175.375 488.7 181.675C479.1 180.275 468.8 176.975 460.6 172.075V180.975H439.4V172.175C431.3 177.075 421.1 180.275 411.3 181.675C409.2 175.375 406.7 171.375 402.2 165.575C415.2 165.475 427.6 164.775 436.9 162.675H403.2V150.075H439.4V148.175H407.7V141.275C406.7 141.875 405.7 142.475 404.6 142.975C403.8 135.975 402.2 128.975 399.3 122.975C406.3 121.075 412.1 113.075 413.7 102.275L433.3 104.375C433.1 105.475 432.8 106.675 432.5 107.875H443.8L445.3 103.275L467.9 104.575L466.4 107.875H493.1V117.275H464.7V118.975H492.8V126.975ZM441.9 138.475V136.675H429.1V138.475H441.9ZM441.9 128.675V126.975H429.1V128.675H441.9ZM441.9 118.975V117.275H429.1V118.975H441.9Z" fill="white"/>
<path d="M23.6726 28.1629L4 24.1248C7.83098 8.69736 23.8797 0 43.4487 0C74.2001 0 81.7586 15.6345 81.7586 24.4354C81.7586 52.4948 25.2257 54.1514 8.96992 55.8081V56.4293L82.5869 56.0151V71.7532H5.76018V53.6337C14.5611 52.3912 63.1213 46.0753 63.1213 26.8169C63.1213 21.4328 56.0806 15.6345 44.07 15.6345C31.0239 15.6345 25.1222 21.7434 23.6726 28.1629Z" fill="white"/>
<path d="M185.049 28.1629L165.377 24.1248C169.208 8.69736 185.257 0 204.826 0C235.577 0 243.135 15.6345 243.135 24.4354C243.135 52.4948 186.603 54.1514 170.347 55.8081V56.4293L243.964 56.0151V71.7532H167.137V53.6337C175.938 52.3912 224.498 46.0753 224.498 26.8169C224.498 21.4328 217.457 15.6345 205.447 15.6345C192.401 15.6345 186.499 21.7434 185.049 28.1629Z" fill="white"/>
<path d="M258.693 36.8602V0.5177H330.86V16.1522L260.35 15.7381V20.2938C277.537 21.9505 338.522 12.6319 338.522 46.0753C338.833 63.7806 318.332 72.5816 299.074 72.5816C274.845 72.5816 257.658 63.9877 253.516 47.1107L272.671 42.0372C274.328 47.3178 280.644 55.0833 298.556 55.0833C305.39 55.0833 318.539 52.9089 318.539 45.4541C318.539 32.6151 283.957 36.8602 266.562 36.8602H258.693Z" fill="white"/>
<path fill-rule="evenodd" clip-rule="evenodd" d="M122.815 6.00442C141.577 6.00442 156.787 19.7117 156.787 36.6206C156.787 53.5297 141.577 67.2378 122.815 67.2378C104.053 67.2376 88.8429 53.5296 88.8429 36.6206C88.8431 19.7118 104.053 6.00463 122.815 6.00442ZM130.58 24.0943C117.083 15.2587 102.341 13.9007 97.6535 21.0611C92.9663 28.2214 100.109 41.1884 113.607 50.0239C127.104 58.8594 141.845 60.2174 146.532 53.0572C151.219 45.8968 144.078 32.9298 130.58 24.0943Z" fill="white"/>
<path d="M122.393 25.2943C122.393 25.2943 122.752 31.0829 125.131 33.4616C127.509 35.8402 133.298 36.1989 133.298 36.1989C133.298 36.1989 127.509 36.5575 125.131 38.9362C122.752 41.3148 122.393 47.1034 122.393 47.1034C122.393 47.1034 122.035 41.3148 119.656 38.9362C117.278 36.5575 111.489 36.1989 111.489 36.1989C111.489 36.1989 117.278 35.8402 119.656 33.4616C122.035 31.0829 122.393 25.2943 122.393 25.2943Z" fill="white"/>
</svg>
